<?xml version="1.0" standalone="no"?>
<!DOCTYPE svg PUBLIC "-//W3C//DTD SVG 20010904//EN"
 "http://www.w3.org/TR/2001/REC-SVG-20010904/DTD/svg10.dtd">
<svg version="1.0" xmlns="http://www.w3.org/2000/svg"
 width="42.000000pt" height="50.000000pt" viewBox="0 0 84.000000 100.000000"
 preserveAspectRatio="xMidYMid meet">

<g transform="translate(0.000000,100.000000) scale(0.100000,-0.100000)"
fill="#4200cd" stroke="none">
<path d="M319 927 c-18 -12 -44 -38 -56 -56 -21 -31 -23 -46 -23 -157 l0 -124
45 32 45 32 0 65 c0 77 14 111 54 129 32 16 69 9 96 -18 18 -18 20 -34 20
-165 0 -132 -2 -147 -20 -165 -12 -12 -33 -20 -53 -20 -38 0 -57 -15 -57 -46
0 -45 10 -54 58 -54 62 0 126 38 153 91 19 37 20 55 17 208 -3 166 -3 168 -31
204 -39 51 -74 67 -150 67 -50 0 -71 -5 -98 -23z"/>
<path d="M319 597 c-18 -12 -44 -38 -56 -56 -22 -32 -23 -44 -23 -198 0 -186
7 -215 65 -259 31 -23 49 -29 104 -32 81 -4 134 23 168 83 20 35 23 54 23 158
0 64 -4 117 -9 117 -5 0 -14 -7 -22 -16 -7 -8 -25 -22 -41 -30 -27 -14 -28
-17 -28 -94 0 -69 -3 -82 -22 -100 -29 -27 -91 -27 -118 0 -28 28 -32 54 -28
189 4 150 11 160 121 170 4 1 7 21 7 46 l0 45 -54 0 c-39 0 -62 -6 -87 -23z"/>
</g>
</svg>
